<svg width="84" height="84" fill="none" xmlns="http://www.w3.org/2000/svg"><path d="M67.695 51.915c-2.799-.602-5.013.697-6.973 1.832-2.008 1.17-5.826 4.267-8.014 3.474-11.204-4.613-21.74-14.42-26.302-25.668-.804-2.235 2.278-6.077 3.439-8.108 1.126-1.967 2.399-4.202 1.819-7.021-.525-2.534-7.309-11.167-9.708-13.527C20.374 1.337 18.753.48 17.09.34 10.834.073 3.848 8.42 2.623 10.416c-3.07 4.258-3.053 9.923.051 16.793 7.48 18.451 35.774 46.298 54.295 54.06 3.417 1.598 6.543 2.4 9.35 2.4 2.748 0 5.194-.767 7.296-2.288 1.586-.914 10.275-8.247 10.047-14.67-.137-1.637-.993-3.275-2.532-4.86-2.343-2.421-10.92-9.408-13.435-9.936z" fill="#fff"/></svg>