<svg width="91" height="89" fill="none" xmlns="http://www.w3.org/2000/svg"><path d="M55.33 42.398l-8.883 8.472-37.51 35.768a5.067 5.067 0 01-3.511 1.412 5.066 5.066 0 01-3.77-1.672c-1.98-2.183-1.72-5.597.557-7.46l44.234-36.019 4.874-3.965 4.009 3.464z" fill="url(#paint0_linear)"/><path d="M46.06 51.3l-8.743 8.332-.806-8.562 4.784-3.895L46.06 51.3z" fill="#3A81D6" fill-opacity=".8"/><path d="M90.322 29.29c0 16.153-13.01 29.25-29.045 29.25-10.106 0-19.008-5.197-24.21-13.087a29.244 29.244 0 01-4.835-16.162c0-16.152 13.01-29.24 29.045-29.24 7.242 0 13.856 2.663 18.94 7.07a29.27 29.27 0 0110.105 22.17z" fill="url(#paint1_linear)"/><path d="M61.279 52.072c12.498 0 22.63-10.2 22.63-22.781 0-12.582-10.132-22.781-22.63-22.781s-22.63 10.2-22.63 22.78c0 12.582 10.132 22.782 22.63 22.782z" fill="#fff"/><path opacity=".06" d="M90.324 29.291c0 16.152-13.011 29.25-29.045 29.25-10.107 0-19.01-5.197-24.211-13.088 32.755-2.683 41.389-30.621 43.16-38.332a29.296 29.296 0 0110.096 22.17z" fill="#1A6FB5" fill-opacity=".5"/><path d="M61.278 29.366c2.626 0 4.755-2.144 4.755-4.79s-2.129-4.79-4.755-4.79-4.755 2.144-4.755 4.79 2.12 4.79 4.755 4.79zm0 2.396c-3.173 0-9.51 1.603-9.51 4.79v1.203c0 .661.538 1.203 1.194 1.203h16.652c.656 0 1.193-.542 1.193-1.203v-1.203c-.02-3.177-6.356-4.79-9.529-4.79z" fill="url(#paint2_linear)"/><defs><linearGradient id="paint0_linear" x1="5.876" y1="82.494" x2="53.052" y2="39.892" gradientUnits="userSpaceOnUse"><stop stop-color="#67C3F3"/><stop offset="1" stop-color="#5A98F2"/></linearGradient><linearGradient id="paint1_linear" x1="49.264" y1="2.117" x2="71.507" y2="51.788" gradientUnits="userSpaceOnUse"><stop stop-color="#67C3F3"/><stop offset="1" stop-color="#5A98F2"/></linearGradient><linearGradient id="paint2_linear" x1="54.403" y1="27.836" x2="71.675" y2="36.196" gradientUnits="userSpaceOnUse"><stop stop-color="#B0F4FF"/><stop offset=".071" stop-color="#A6F1FF"/><stop offset=".294" stop-color="#8BE8FD"/><stop offset=".521" stop-color="#78E1FD"/><stop offset=".754" stop-color="#6DDDFC"/><stop offset="1" stop-color="#69DCFC"/></linearGradient></defs></svg>