<svg width="90" height="80" fill="none" xmlns="http://www.w3.org/2000/svg"><g clip-path="url(#clip0)"><path d="M74.785 15.752h-59.87v64.217h59.87V15.752z" fill="url(#paint0_linear)"/><path d="M14.669 15.753c.072 0 .144.03.248.062v64.124c-4.635.36-8.547-.805-11.654-3.797C1.064 74.017 0 71.521 0 68.694V38.685c0-3.817-.01-7.634-.01-11.45 0-4.612 2.487-7.964 7.06-10.234 2.354-1.155 4.965-1.33 7.618-1.248z" fill="url(#paint1_linear)"/><path d="M64.33 15.742h5.605V79.95H19.768V15.762h5.956v-.67c0-2.301.01-4.612-.01-6.912-.02-1.61.413-3.013 1.672-4.106.888-.764 1.91-1.155 3.066-1.155 3.582-.01 7.153-.01 10.735-.01 6.018 0 12.046.01 18.064 0 1.58 0 2.89.515 3.922 1.712.826.959 1.136 2.083 1.136 3.342-.01 2.424 0 4.848 0 7.273-.01.134 0 .289.02.505zm-32.144 0h9.176c5.327 0 10.663 0 15.99.01.423 0 .516-.134.516-.536-.02-1.805 0-3.61 0-5.416 0-.144-.02-.289-.041-.443H32.186v6.385z" fill="#fff"/><mask id="a" maskUnits="userSpaceOnUse" x="19" y="2" width="51" height="78"><path d="M64.329 15.742h5.605V79.95H19.767V15.762h5.956v-.67c0-2.301.01-4.612-.01-6.912-.02-1.61.413-3.013 1.672-4.106.888-.764 1.91-1.155 3.066-1.155 3.582-.01 7.153-.01 10.735-.01 6.018 0 12.046.01 18.064 0 1.58 0 2.89.515 3.922 1.712.826.959 1.136 2.083 1.136 3.342-.01 2.424 0 4.848 0 7.273-.01.134 0 .289.02.505zm-32.144 0h9.177c5.326 0 10.663 0 15.989.01.423 0 .516-.134.516-.536-.02-1.805 0-3.61 0-5.416 0-.144-.02-.289-.041-.443H32.185v6.385z" fill="#F7F9FC"/></mask><g mask="url(#a)"><path d="M65.358 0H23.625v15.763h41.733V0z" fill="url(#paint2_linear)"/></g><path d="M90 27.069c0-4.25-2.322-7.417-6.45-9.718-2.54-1.413-5.42-1.681-8.372-1.62-.454.011-.392.248-.392.496v22.272c0 13.05 0 26.089-.01 39.139v2.32c1.857.063 3.623.073 5.357-.34 5.863-1.382 9.857-5.746 9.857-10.893.021-13.875.01-27.77.01-41.656z" fill="url(#paint3_linear)"/><path d="M49.744 52.601v8.15c0 .856-.433 1.31-1.28 1.31-2.332.01-4.665.01-6.998 0-.774 0-1.208-.485-1.208-1.3v-8.16h-8.062c-1 0-1.414-.402-1.414-1.403v-6.654c0-1.01.403-1.413 1.404-1.413h8.062v-8.108c0-.95.423-1.362 1.373-1.362h6.657c1.043 0 1.446.392 1.446 1.455.01 2.537 0 5.065 0 7.602v.423h.444c2.56 0 5.12 0 7.68.01.939 0 1.341.413 1.341 1.352v6.685c0 1.021-.392 1.413-1.393 1.413-2.55 0-5.1 0-7.639.01-.103-.01-.227-.01-.413-.01z" fill="url(#paint4_linear)"/></g><defs><linearGradient id="paint0_linear" x1="14.917" y1="47.856" x2="74.782" y2="47.856" gradientUnits="userSpaceOnUse"><stop stop-color="#B0F4FF"/><stop offset="1" stop-color="#69DCFC"/></linearGradient><linearGradient id="paint1_linear" x1=".001" y1="47.867" x2="14.918" y2="47.867" gradientUnits="userSpaceOnUse"><stop stop-color="#6CBCFC"/><stop offset="1" stop-color="#458DFC"/></linearGradient><linearGradient id="paint2_linear" x1="23.621" y1="7.88" x2="65.356" y2="7.88" gradientUnits="userSpaceOnUse"><stop stop-color="#6CBCFC"/><stop offset="1" stop-color="#458DFC"/></linearGradient><linearGradient id="paint3_linear" x1="74.778" y1="47.861" x2="90.002" y2="47.861" gradientUnits="userSpaceOnUse"><stop stop-color="#6CBCFC"/><stop offset="1" stop-color="#458DFC"/></linearGradient><linearGradient id="paint4_linear" x1="30.789" y1="47.871" x2="59.21" y2="47.871" gradientUnits="userSpaceOnUse"><stop stop-color="#6CBCFC"/><stop offset="1" stop-color="#458DFC"/></linearGradient><clipPath id="clip0"><path fill="#fff" d="M0 0h90v80H0z"/></clipPath></defs></svg>