<svg width="107" height="91" fill="none" xmlns="http://www.w3.org/2000/svg"><path fill-rule="evenodd" clip-rule="evenodd" d="M.468 76.84c15.906-7.868 23.859-17.111 23.859-27.732-6.78-.786-12.386-3.572-16.819-8.358C3.075 35.964.86 30.424.86 24.13c0-6.686 2.151-12.324 6.454-16.913C11.615 2.627 17.026.333 23.545.333c7.301 0 13.624 2.983 18.97 8.949 5.345 5.966 8.018 13.21 8.018 21.733C50.533 56.582 36.322 76.576 7.9 91L.468 76.84zm56.134 0c16.036-7.868 24.054-17.111 24.054-27.732-6.91-.786-12.581-3.572-17.014-8.358-4.433-4.786-6.65-10.326-6.65-16.62 0-6.686 2.184-12.324 6.552-16.913 4.368-4.59 9.811-6.884 16.33-6.884 7.301 0 13.592 2.983 18.872 8.949 5.281 5.966 7.921 13.21 7.921 21.733 0 25.567-14.146 45.562-42.438 59.985l-7.627-14.16z" fill="#37F"/></svg>